<?xml version="1.0" encoding="utf-8"?>
<!-- Generator: IcoMoon.io  -->
<!DOCTYPE svg PUBLIC "-//W3C//DTD SVG 1.1//EN" "http://www.w3.org/Graphics/SVG/1.1/DTD/svg11.dtd">
<svg width="868" height="84" viewBox="0 0 868 84" data-tags="cog, gear, settings, options" style="margin-left: 2px; margin-top: 2px;" xmlns="http://www.w3.org/2000/svg" fill="#666666"><path d="M 415.92,305.088l-21.184,0 c-3.44,12.464-8.368,24.288-14.688,35.248l 19.584,19.568
	c 12.528,12.528, 12.528,32.848,0,45.376l-11.344,11.344c-12.528,12.528-32.848,12.528-45.376,0L 323.2,396.928c-10.928,6.224-22.704,11.072-35.104,14.448
	l0,20.544 c0,17.712-14.352,32.080-32.080,32.080l-16.032,0 c-17.712,0-32.096-14.352-32.096-32.080l0-20.544 c-12.384-3.376-24.176-8.24-35.104-14.448
	l-19.696,19.696c-12.512,12.528-32.832,12.528-45.36,0L 96.368,405.28c-12.528-12.528-12.528-32.848,0-45.376l 19.584-19.568
	c-6.32-10.976-11.248-22.784-14.704-35.248L 80.080,305.088 C 62.352,305.088, 48,290.736, 48,273.024l0-16.048 c0-17.712, 14.352-32.080, 32.080-32.080l 20.928,0
	C 104.32,212.56, 109.056,200.816, 115.2,189.92l-18.832-18.816c-12.528-12.528-12.528-32.848,0-45.376l 11.344-11.328c 12.528-12.528, 32.848-12.528, 45.36,0
	l 18.448,18.448c 11.296-6.576, 23.488-11.696, 36.352-15.2L 207.872,96.080 C 207.888,78.352, 222.272,64, 239.984,64l 16.032,0 c 17.712,0, 32.080,14.352, 32.080,32.080
	l0,21.552 c 12.896,3.52, 25.072,8.64, 36.352,15.216l 18.448-18.448c 12.528-12.528, 32.848-12.528, 45.376,0l 11.344,11.328
	c 12.528,12.528, 12.528,32.848,0,45.376L 380.8,189.92c 6.144,10.896, 10.88,22.64, 14.208,34.992l 20.928,0 c 17.712,0, 32.080,14.368, 32.080,32.080l0,16.048
	C 448,290.736, 433.648,305.088, 415.92,305.088z M 248,177.28c-48.72,0-88.224,39.504-88.224,88.224s 39.504,88.224, 88.224,88.224
	s 88.224-39.504, 88.224-88.224S 296.72,177.28, 248,177.28z M 248,304.592c-22.144,0-40.112-17.936-40.112-40.096c0-22.144, 17.968-40.096, 40.112-40.096
	s 40.096,17.952, 40.096,40.096C 288.096,286.656, 270.144,304.592, 248,304.592z" transform="scale(0.0546875 0.0546875)"></path><path d="M 70,2.611C 63.699,2.611, 58.612,7.699, 58.612,14c0,6.299, 5.087,11.389, 11.388,11.389
			c 6.3,0, 11.389-5.089, 11.389-11.389C 81.389,7.699, 76.299,2.611, 70,2.611z M 69.96,7.165c 0.815,0, 1.476,0.661, 1.476,1.477
			c0,0.816-0.661,1.477-1.476,1.477c-0.816,0-1.477-0.661-1.477-1.477C 68.482,7.826, 69.143,7.165, 69.96,7.165z M 70.159,24.623
			c-3.098,0-5.478-2.314-5.478-5.307c0-2.892, 2.189-5.309, 5.125-5.306c0,0, 5.511-0.271, 5.511-5.323c0-3.036-1.838-4.871-5.324-5.323
			c 6.276,0.348, 10.63,4.701, 10.63,10.629C 80.623,19.778, 75.863,24.623, 70.159,24.623z M 70.013,17.775
			c-0.816,0-1.477,0.661-1.477,1.477c0,0.816, 0.661,1.477, 1.477,1.477c 0.816,0, 1.477-0.661, 1.477-1.477
			C 71.49,18.435, 70.829,17.775, 70.013,17.775z"></path><path d="M 130,11l0,2 q0,3.453 -2.305,6.008t-5.695,2.93l0,2.063 l 4,0 q 0.406,0 0.703,0.297t 0.297,0.703t-0.297,0.703t-0.703,0.297l-10,0 q-0.406,0 -0.703-0.297t-0.297-0.703t 0.297-0.703t 0.703-0.297l 4,0 l0-2.063 q-3.391-0.375 -5.695-2.93t-2.305-6.008l0-2 q0-0.406 0.297-0.703t 0.703-0.297t 0.703,0.297t 0.297,0.703l0,2 q0,2.891 2.055,4.945t 4.945,2.055 t 4.945-2.055t 2.055-4.945l0-2 q0-0.406 0.297-0.703t 0.703-0.297t 0.703,0.297t 0.297,0.703zM 126,5l0,8 q0,2.063 -1.469,3.531t-3.531,1.469t-3.531-1.469t-1.469-3.531l0-8 q0-2.063 1.469-3.531t 3.531-1.469t 3.531,1.469t 1.469,3.531z"></path><path d="M 172.234,14.766l-1.578,1.578q-0.656-1.609 -0.656-3.344l0-2 q0-0.406 0.297-0.703t 0.703-0.297t 0.703,0.297t 0.297,0.703l0,2 q0,0.828 0.234,1.766zM 189.641,5.359l-5.641,5.641l0,2 q0,2.063 -1.469,3.531t-3.531,1.469q-0.859,0 -1.703-0.297l-1.5,1.5q 1.516,0.797 3.203,0.797q 2.891,0 4.945-2.055t 2.055-4.945l0-2 q0-0.406 0.297-0.703t 0.703-0.297t 0.703,0.297t 0.297,0.703l0,2  q0,3.453 -2.305,6.008t-5.695,2.93l0,2.063 l 4,0 q 0.406,0 0.703,0.297t 0.297,0.703t-0.297,0.703t-0.703,0.297l-10,0 q-0.406,0 -0.703-0.297t-0.297-0.703t 0.297-0.703t 0.703-0.297l 4,0 l0-2.063 q-1.953-0.203 -3.672-1.266l-3.969,3.969q-0.156,0.156 -0.359,0.156t-0.359-0.156l-1.281-1.281q-0.156-0.156 -0.156-0.359t 0.156-0.359l 19.281-19.281q 0.156-0.156 0.359-0.156t 0.359,0.156l 1.281,1.281q 0.156,0.156 0.156,0.359 t-0.156,0.359zM 183.703,3.297l-9.703,9.703l0-8 q0-2.063 1.469-3.531t 3.531-1.469q 1.594,0 2.883,0.922t 1.82,2.375z"></path><path d="M 237.729,1.167l-4.667,5.833l-4.667,0 C 226.465,7, 225.167,8.862, 225.167,10.792L 225.167,17.5 c0,1.93, 1.298,3.5, 3.229,3.5l 4.667,0 l 4.667,5.833c 1.167,0, 2.604,0, 2.604,0L 240.333,1.167 C 239.167,1.167, 238.896,1.167, 237.729,1.167z
	 M 232.167,18.667L 228.396,18.667 C 227.751,18.667, 227.5,18.143, 227.5,17.5L 227.5,10.792 C 227.5,10.149, 227.751,9.333, 228.396,9.333L 232.167,9.333 L 232.167,18.667 z M 238,23.333l-4.667-4.667l0-0.132 L 233.333,9.333 l 4.667-4.667L 238,23.333 zM 250.833,12.833L 248.5,12.833L 248.5,10.5L 246.167,10.5L 246.167,12.833L 243.833,12.833L 243.833,15.167L 246.167,15.167L 246.167,17.5L 248.5,17.5L 248.5,15.167L 250.833,15.167 z"></path><path d="M 293.729,1.167l-4.667,5.833l-4.667,0 C 282.465,7, 281.167,8.862, 281.167,10.792L 281.167,17.5 c0,1.93, 1.298,3.5, 3.229,3.5l 4.667,0 l 4.667,5.833c 1.167,0, 2.604,0, 2.604,0L 296.333,1.167 C 295.167,1.167, 294.896,1.167, 293.729,1.167z
	 M 288.167,18.667L 284.396,18.667 C 283.751,18.667, 283.5,18.143, 283.5,17.5L 283.5,10.792 C 283.5,10.149, 283.751,9.333, 284.396,9.333L 288.167,9.333 L 288.167,18.667 z M 294,23.333l-4.667-4.667l0-0.132 L 289.333,9.333 l 4.667-4.667L 294,23.333 zM 299.833,12.833L 306.833,12.833L 306.833,15.167L 299.833,15.167z"></path><path d="M 350,10.499c-1.932,0-3.5,1.568-3.5,3.5s 1.568,3.5, 3.5,3.5s 3.5-1.568, 3.5-3.5S 351.932,10.499, 350,10.499z M 360.77,10.926
			c-0.379-0.122-0.721-0.317-1.014-0.575c-0.471,0.868-1.052,1.758-1.679,2.651c-0.974-1.252-2.086-2.515-3.326-3.756
			c-1.231-1.231-2.499-2.347-3.764-3.33c 3.006-2.119, 5.896-3.394, 7.953-3.394c 0.835,0, 1.475,0.216, 1.899,0.641
			c 0.462,0.462, 0.666,1.188, 0.63,2.107c 0.067-0.005, 0.128-0.021, 0.196-0.021c 0.336,0, 0.656,0.069, 0.956,0.173
			c 0.072-1.308-0.238-2.365-0.957-3.085c-0.652-0.652-1.568-0.982-2.724-0.982c-2.384,0-5.614,1.422-8.939,3.823
			C 346.676,2.777, 343.446,1.353, 341.062,1.353c-0.247,0-0.479,0.023-0.705,0.054c 0.319,0.308, 0.559,0.688, 0.712,1.114
			c 2.057,0.002, 4.944,1.278, 7.949,3.395C 347.751,6.901, 346.481,8.017, 345.252,9.248c-1.225,1.226-2.342,2.497-3.332,3.773
			C 340.922,11.608, 340.1,10.207, 339.51,8.876c-0.404-0.909-0.673-1.743-0.831-2.497C 338.564,6.394, 338.452,6.415, 338.333,6.415
			c-0.301,0-0.586-0.059-0.859-0.144c 0.156,0.929, 0.473,1.958, 0.97,3.078c 0.661,1.494, 1.593,3.071, 2.736,4.653
			c-1.142,1.58-2.071,3.156-2.734,4.649c-1.411,3.182-1.448,5.671-0.106,7.013c 0.652,0.652, 1.568,0.982, 2.724,0.982
			c 3.523,0, 8.897-3.099, 13.691-7.895c 1.228-1.23, 2.346-2.504, 3.336-3.784c 3.232,4.566, 4.158,8.458, 2.748,9.869
			c-0.425,0.425-1.064,0.641-1.899,0.641c-1.1,0-2.444-0.371-3.913-1.035c-0.155,0.373-0.385,0.705-0.671,0.982
			c 1.701,0.788, 3.271,1.219, 4.584,1.219c 1.156,0, 2.072-0.33, 2.724-0.982c 2.028-2.028, 0.748-6.686-2.857-11.679
			C 359.547,12.955, 360.224,11.928, 360.77,10.926z M 341.065,25.48c-0.835,0-1.475-0.216-1.899-0.641c-0.963-0.963-0.837-3.045, 0.348-5.714
			c 0.589-1.33, 1.411-2.729, 2.406-4.142c 0.991,1.275, 2.106,2.546, 3.33,3.768c 1.238,1.238, 2.513,2.335, 3.787,3.32
			C 346.022,24.2, 343.124,25.48, 341.065,25.48z M 353.931,17.927c-1.276,1.276-2.604,2.429-3.925,3.432
			c-1.324-1.006-2.653-2.155-3.933-3.432c-1.276-1.276-2.426-2.601-3.434-3.925c 1.008-1.327, 2.161-2.652, 3.437-3.929
			C 347.352,8.797, 348.681,7.644, 350.002,6.638c 1.321,1.004, 2.648,2.157, 3.924,3.432c 1.325,1.325, 2.466,2.643, 3.444,3.92
			C 356.362,15.321, 355.21,16.647, 353.931,17.927z M 361.667,6.999c-0.645,0-1.167,0.522-1.167,1.167s 0.522,1.167, 1.167,1.167s 1.167-0.522, 1.167-1.167S 362.312,6.999, 361.667,6.999z
			 M 352.333,22.166c-0.645,0-1.167,0.522-1.167,1.167s 0.522,1.167, 1.167,1.167s 1.167-0.522, 1.167-1.167S 352.979,22.166, 352.333,22.166z M 338.333,4.666c 0.645,0, 1.167-0.522, 1.167-1.167s-0.522-1.167-1.167-1.167
			s-1.167,0.522-1.167,1.167S 337.688,4.666, 338.333,4.666z"></path><path d="M 400.75,5.25 L 420,0 L 420,1.75 L 420,5.25 L 420,20.125 C 420,22.541 417.258,24.5 413.875,24.5 C 410.492,24.5 407.75,22.541 407.75,20.125 C 407.75,17.709 410.492,15.75 413.875,15.75 C 414.814,15.75 415.704,15.901 416.5,16.171 L 416.5,7.159 L 404.25,10.5 L 404.25,23.625 C 404.25,26.041 401.508,28 398.125,28 C 394.742,28 392,26.041 392,23.625 C 392,21.209 394.742,19.25 398.125,19.25 C 399.064,19.25 399.954,19.401 400.75,19.671 L 400.75,10.5 L 400.75,5.25 Z"></path><path d="M 462,0 C 454.378,0 448.179,6.091 448.004,13.671 C 448.166,7.058 453.195,1.75 459.375,1.75 C 465.657,1.75 470.75,7.235 470.75,14 C 470.75,15.45 471.925,16.625 473.375,16.625 C 474.825,16.625 476,15.45 476,14 C 476,6.268 469.732,0 462,0 ZM 462,28 C 469.622,28 475.821,21.909 475.996,14.329 C 475.834,20.942 470.805,26.25 464.625,26.25 C 458.343,26.25 453.25,20.765 453.25,14 C 453.25,12.55 452.075,11.375 450.625,11.375 C 449.175,11.375 448,12.55 448,14 C 448,21.732 454.268,28 462,28 Z"></path><path d="M 518,0C 510.268,0, 504,6.268, 504,14s 6.268,14, 14,14s 14-6.268, 14-14S 525.732,0, 518,0z M 525,9.475L 520.475,14
	L 525,18.525L 525,21 l-2.475,0 L 518,16.475L 513.475,21L 511,21 l0-2.475 L 515.525,14L 511,9.475L 511,7 l 2.475,0 L 518,11.525L 522.525,7L 525,7
	L 525,9.475 z"></path><path d="M 574,0C 566.268,0, 560,6.268, 560,14s 6.268,14, 14,14s 14-6.268, 14-14S 581.732,0, 574,0z M 571.375,22.75L 565.578,15.203l 2.57-2.68l 3.227,4.102
	l 10.117-8.258l 1.258,1.258L 571.375,22.75z"></path><path d="M 619.5,24.5 L 619.5,3.5 L 623,3.5 L 623,13.125 L 631.75,4.375 L 631.75,13.125 L 640.5,4.375 L 640.5,23.625 L 631.75,14.875 L 631.75,23.625 L 623,14.875 L 623,24.5 Z"></path><path d="M 696.5,3.5 L 696.5,24.5 L 693,24.5 L 693,14.875 L 684.25,23.625 L 684.25,14.875 L 675.5,23.625 L 675.5,4.375 L 684.25,13.125 L 684.25,4.375 L 693,13.125 L 693,3.5 Z"></path><path d="M 752.337,25.212c-0.336,0-0.672-0.128-0.928-0.384c-0.513-0.513-0.513-1.344,0-1.856
		C 753.805,20.575, 755.125,17.389, 755.125,14c0-3.389-1.32-6.575-3.716-8.971c-0.513-0.513-0.513-1.344,0-1.856
		c 0.513-0.513, 1.344-0.513, 1.856,0c 2.892,2.892, 4.485,6.737, 4.485,10.828c0,4.090-1.593,7.935-4.485,10.828
		C 753.009,25.084, 752.673,25.212, 752.337,25.212zM 747.675,22.737c-0.336,0-0.672-0.128-0.928-0.384c-0.513-0.513-0.513-1.344,0-1.856
		c 3.582-3.582, 3.582-9.411,0-12.993c-0.513-0.513-0.513-1.344,0-1.856c 0.513-0.512, 1.344-0.513, 1.856,0
		C 750.834,7.878, 752.063,10.845, 752.063,14c0,3.155-1.229,6.122-3.46,8.353C 748.346,22.609, 748.011,22.737, 747.675,22.737zM 743.012,20.262c-0.336,0-0.672-0.128-0.928-0.384c-0.513-0.513-0.513-1.344,0-1.856
		c 2.218-2.218, 2.218-5.826,0-8.043c-0.513-0.513-0.513-1.344,0-1.856c 0.513-0.513, 1.344-0.513, 1.856,0
		c 3.241,3.241, 3.241,8.515,0,11.756C 743.684,20.134, 743.348,20.262, 743.012,20.262zM 738.974,2.151 C 739.676,1.449 740.25,1.687 740.25,2.68 L 740.25,25.32 C 740.25,26.313 739.676,26.551 738.974,25.849 L 732.375,19.25 L 728,19.25 L 728,8.75 L 732.375,8.75 L 738.974,2.151 Z"></path><path d="M 803.675,22.737c-0.336,0-0.672-0.128-0.928-0.384c-0.513-0.513-0.513-1.344,0-1.856
		c 3.582-3.582, 3.582-9.411,0-12.993c-0.513-0.513-0.513-1.344,0-1.856c 0.513-0.512, 1.344-0.513, 1.856,0
		C 806.834,7.878, 808.063,10.845, 808.063,14c0,3.155-1.229,6.122-3.46,8.353C 804.346,22.609, 804.011,22.737, 803.675,22.737zM 799.012,20.262c-0.336,0-0.672-0.128-0.928-0.384c-0.513-0.513-0.513-1.344,0-1.856
		c 2.218-2.218, 2.218-5.826,0-8.043c-0.513-0.513-0.513-1.344,0-1.856c 0.513-0.513, 1.344-0.513, 1.856,0
		c 3.241,3.241, 3.241,8.515,0,11.756C 799.684,20.134, 799.348,20.262, 799.012,20.262zM 794.974,2.151 C 795.676,1.449 796.25,1.687 796.25,2.68 L 796.25,25.32 C 796.25,26.313 795.676,26.551 794.974,25.849 L 788.375,19.25 L 784,19.25 L 784,8.75 L 788.375,8.75 L 794.974,2.151 Z"></path><path d="M 855.012,20.262c-0.336,0-0.672-0.128-0.928-0.384c-0.513-0.513-0.513-1.344,0-1.856
		c 2.218-2.218, 2.218-5.826,0-8.043c-0.513-0.513-0.513-1.344,0-1.856c 0.513-0.513, 1.344-0.513, 1.856,0
		c 3.241,3.241, 3.241,8.515,0,11.756C 855.684,20.134, 855.348,20.262, 855.012,20.262zM 850.974,2.151 C 851.676,1.449 852.25,1.687 852.25,2.68 L 852.25,25.32 C 852.25,26.313 851.676,26.551 850.974,25.849 L 844.375,19.25 L 840,19.25 L 840,8.75 L 844.375,8.75 L 850.974,2.151 Z"></path><path d="M 10.974,58.151 C 11.676,57.449 12.25,57.687 12.25,58.68 L 12.25,81.32 C 12.25,82.313 11.676,82.551 10.974,81.849 L 4.375,75.25 L 0,75.25 L 0,64.75 L 4.375,64.75 L 10.974,58.151 Z"></path><path d="M 66.974,58.151 C 67.676,57.449 68.25,57.687 68.25,58.68 L 68.25,81.32 C 68.25,82.313 67.676,82.551 66.974,81.849 L 60.375,75.25 L 56,75.25 L 56,64.75 L 60.375,64.75 L 66.974,58.151 ZM 82.25,72.93 L 82.25,75.25 L 79.93,75.25 L 77,72.32 L 74.070,75.25 L 71.75,75.25 L 71.75,72.93 L 74.68,70 L 71.75,67.070 L 71.75,64.75 L 74.070,64.75 L 77,67.68 L 79.93,64.75 L 82.25,64.75 L 82.25,67.070 L 79.32,70 Z"></path><path d="M 139.629,78.935l-10.499-21C 128.537,56.749, 127.326,56, 126,56s-2.538,0.749-3.13,1.935
			l-10.499,21c-0.542,1.085-0.485,2.374, 0.153,3.406C 113.162,83.372, 114.288,84, 115.501,84l 20.997,0 c 1.214,0, 2.34-0.628, 2.977-1.659
			C 140.113,81.308, 140.171,80.020, 139.629,78.935z M 127.748,79.625c0,0.484-0.391,0.875-0.875,0.875l-1.75,0 c-0.484,0-0.875-0.391-0.875-0.875l0-1.75 c0-0.484, 0.391-0.875, 0.875-0.875l 1.75,0
			c 0.484,0, 0.875,0.391, 0.875,0.875L 127.748,79.625 z M 127.748,72.625c0,0.484-0.391,0.875-0.875,0.875l-1.75,0 c-0.484,0-0.875-0.391-0.875-0.875L 124.248,63.875 c0-0.483, 0.391-0.875, 0.875-0.875l 1.75,0 c 0.484,0, 0.875,0.392, 0.875,0.875
			L 127.748,72.625 z"></path><path d="M 182,84C 174.268,84, 168,77.731, 168,70C 168,62.268, 174.268,56, 182,56c 7.732,0, 14,6.268, 14,14
	C 196,77.731, 189.731,84, 182,84z M 193.347,68.827c 0.023-0.011, 0.035-0.031, 0.044-0.061c 0.018,0.097, 0.063,0.183, 0.135,0.246
	c 0.002,0.009-0.003,0.007, 0.002,0.019c 0.007,0, 0.012-0.005, 0.018-0.005C 193.619,69.085, 193.71,69.125, 193.813,69.125c 0.158,0, 0.289-0.088, 0.366-0.211
	c 0.005,0.006, 0.014,0.014, 0.018,0.021c-0.001-0.014-0.003-0.028-0.004-0.042C 194.226,68.831, 194.25,68.763, 194.25,68.688
	c0-0.242-0.197-0.438-0.438-0.438c-0.154,0-0.282,0.084-0.36,0.203c-0.004-0.003,0-0.013-0.010-0.010
	c 0.011-0.033-0.019-0.118-0.067-0.209L 193.375,68.688 C 193.375,68.737, 193.361,68.782, 193.347,68.827z M 173.243,68.695c0-0.132-0.301-0.357-0.379-0.357
	c0-0.024-0.123-0.293-0.169-0.293c0-0.091-0.319-0.5-0.37-0.321c-0.033,0.116, 0.244,0.271, 0.244,0.405
	c 0.052,0, 0.269,0.411, 0.311,0.483c 0.474,0.801-0.354,0.254-0.354-0.086c-0.106-0.052-0.273-0.456-0.273-0.566
	c-0.062-0.050-0.246-0.439-0.231-0.439c0-0.256-0.141-0.378-0.421-0.378c-0.013-0.025-0.248-0.356-0.253-0.356
	c0-0.105-0.189-0.43-0.294-0.482c0-0.218-0.112-0.487-0.062-0.712c0-0.237-0.012-0.506-0.093-0.749C 170.169,66.412, 169.75,68.155, 169.75,70
	c0,5.286, 3.355,9.777, 8.046,11.495c 0.005-0.434, 0.038-0.954, 0.137-0.954c0-0.065, 0.055-0.336, 0.105-0.336c0-0.166, 0.020-0.367,0-0.566
	c-0.062-0.125, 0.082-0.285, 0.126-0.482c 0.242-0.122, 0.071-1.341, 0.254-1.341c0-0.61, 0.137-0.965, 0.041-1.53
	c 0.046,0-0.276-0.342-0.273-0.336c-0.309,0-0.525-0.495-0.525-0.712c-0.030-0.095-0.106-0.238-0.106-0.356
	c 0.071,0-0.442-0.749-0.442-0.734c-0.271-0.15, 0.015-0.36, 0.042-0.607c-0.235-0.078, 0.003-0.713, 0.105-0.713
	c 0.011-0.081, 0.052-0.136, 0.127-0.167c 0.052,0.209, 0.297-0.104, 0.105-0.104c0-0.138-0.016-0.434,0-0.503
	c0-0.213-0.189-0.632-0.336-0.189c-0.158-0.078-0.555-0.064-0.589-0.314c 0.025-0.123-0.227-0.375-0.315-0.419
	c 0.082-0.215-0.426-0.503-0.61-0.503c0-0.046-0.097-0.025-0.126-0.084c-0.187,0-0.23-0.252-0.442-0.252
	c-0.244,0-0.49-0.167-0.715-0.167c-0.075-0.15-0.424-0.091-0.505-0.252c-0.183,0-0.255-0.347-0.26-0.474
	C 173.587,69.24, 173.462,68.695, 173.243,68.695z M 190.967,61.673C 190.965,61.679, 190.969,61.675, 190.96,61.693c 0.013,0, 0.029,0.015, 0.044,0.021
	C 190.991,61.701, 190.979,61.688, 190.967,61.673z M 191.23,61.963c 0.031,0.060, 0.053,0.115, 0.046,0.149c 0.031,0.001, 0.045-0.016, 0.070-0.022
	C 191.309,62.047, 191.268,62.007, 191.23,61.963z M 191.991,65.95c 0.014-0.378-0.315-0.315-0.419-0.525c-0.108,0-0.148-0.084-0.295-0.084
	c-0.095-0.032-0.171-0.010-0.226,0.068c-0.225,0.086-0.089-0.109-0.258-0.109c 0.008-0.216-0.078-0.276-0.316-0.252
	c-0.137,0.308-0.347,0.493-0.315,0.839c 0.101,0.023, 0.083,0.045, 0.063,0.146c 0.134,0.007, 0.946-0.042, 0.946-0.126
	c 0.028,0, 0.169,0.29, 0.169,0.042c 0.113,0, 0.172,0.265, 0.442,0.188C 191.782,66.191, 192.231,65.95, 191.991,65.95z M 192.034,70.415
	c 0.016-0.077-0.038-0.111-0.084-0.189c 0.12,0-0.379-0.925-0.379-1.069c-0.076-0.038-0.173-0.302-0.191-0.398
	c-0.102-0.068-0.208-0.292-0.252-0.419c-0.104-0.069-0.358-0.379-0.399-0.524c 0.15,0.017, 0.378,0.047, 0.378-0.147
	c-0.102,0-0.116-0.125-0.020-0.125c-0.032-0.129, 0.068-0.221, 0.090-0.322c 0.026-0.122, 0.078-0.309, 0.078-0.454
	c-0.144,0-0.179,0.025-0.294,0.063c0,0.085-0.256-0.021-0.294-0.021c-0.055-0.11-0.455,0.144-0.567-0.084
	c-0.181-0.164-0.132-0.29-0.191-0.521c-0.030-0.117-0.19-0.124-0.287-0.144c-0.274-0.053-0.076,0.326-0.091,0.413
	c 0.168,0-0.106,0.208-0.106,0.314c-0.284-0.061-0.189-0.377-0.356-0.461c-0.050-0.084-0.011-0.147-0.127-0.147
	c0-0.112, 0.060-0.315-0.063-0.356c0-0.054-0.238-0.076-0.273-0.147c-0.15,0-0.5-0.569-0.608-0.377
	c-0.067,0.123, 0.057,0.152, 0.082,0.252c 0.218-0.043, 0.197,0.359, 0.463,0.314c0,0.056, 0.007,0.113, 0.020,0.168
	c 0.197-0.046, 0.174,0.146, 0.273,0.146c-0.072,0.095-0.299-0.152-0.237,0.056c 0.036,0.121, 0.016,0.224-0.141,0.342
	c0-0.13-0.011-0.482-0.147-0.482c-0.093-0.185-0.368-0.141-0.485-0.314c-0.095,0-0.131-0.294-0.294-0.314
	c-0.031,0.043-0.145,0.084-0.19,0.084c-0.088,0.178-0.588,0.018-0.588,0.042c-0.008,0.002-0.28,0.667-0.296,0.754
	c-0.031,0.188-0.182,0.192-0.228,0.37c-0.023,0.089-0.571,0.047-0.571,0.113c-0.237-0.079-0.442-0.245-0.442-0.503
	c-0.019,0, 0.045-0.659, 0.085-0.755c 0.048,0.013, 0.058,0.030, 0.085,0.084c 0.145-0.054, 0.484,0.036, 0.484-0.126
	c 0.141,0.004, 0.183,0.060, 0.126,0.168c 0.131,0.025, 0.358,0.058, 0.358-0.126c-0.077,0-0.085-0.007-0.085-0.084
	c 0.252-0.262-0.189-0.498-0.189-0.628c-0.089-0.030-0.271-0.223-0.142-0.15c 0.109,0.060, 0.509,0.185, 0.352-0.081
	c 0.011-0.004, 0.018-0.011, 0.020-0.020c 0.045,0.032, 0.233,0.225, 0.233,0.042c 0.052,0, 0.251-0.126, 0.084-0.126
	c 0.016-0.095, 0.012-0.173, 0.020-0.231c 0.267,0.144, 0.118-0.098, 0.253-0.188c0,0.174, 0.144-0.084, 0.231-0.084
	c 0.104-0.155, 0.342-0.035, 0.4-0.21c-0.129-0.042-0.105-0.364-0.105-0.481c 0.155,0.025, 0.327-0.209, 0.351-0.048
	c 0.009,0.062, 0.017,0.234, 0.048,0.257c 0.23,0.121, 0.169-0.069, 0.169-0.188c-0.077,0-0.179-0.27-0.19-0.399
	c-0.063,0.009-0.165,0.035-0.19,0.083c-0.229,0-0.385-0.083-0.567-0.083c-0.014-0.028-0.233-0.273-0.21-0.273
	c-0.128-0.22, 0.128-0.156, 0.168-0.166c0-0.208, 0.867-0.172, 0.905-0.504c-0.285,0, 0.294-0.483, 0.294-0.481
	c 0.193-0.165, 0.296-0.308, 0.536-0.326c 0.102-0.007, 1.23-0.319, 1.23-0.178c 0.045,0.002, 0.196,0.004, 0.352,0.009
	C 188.139,59.001, 185.219,57.75, 182,57.75c-3.118,0-5.955,1.174-8.117,3.093c 0.019,0.044, 0.034,0.086, 0.033,0.116
	C 174.030,60.951, 174.195,60.877, 174.232,61.022C 174.175,61.022, 174.118,61.015, 174.064,61.001c 0.040,0.325-0.142,0.126-0.294,0.126
	c0-0.008-0.067-0.035-0.139-0.054c-0.046,0.044-0.095,0.085-0.142,0.129C 173.494,61.215, 173.486,61.216, 173.495,61.232
	c 0.049,0, 0.024,0.076, 0.164,0.123C 173.821,61.409, 173.998,61.44, 174.169,61.467c 0.138,0.022, 0.218-0.025, 0.336-0.025
	c0-0.018, 0.289-0.146, 0.085-0.146c 0.028-0.116-0.024-0.144-0.148-0.146c 0.011-0.123, 0.302-0.042, 0.421-0.042
	c 0.091-0.153, 0.003-0.135, 0.083-0.274c 0.096-0.171, 0.211-0.023, 0.274-0.186C 175.315,60.682, 175.4,60.734, 175.431,60.854
	C 175.507,60.918, 175.893,61.488, 175.893,61.085C 176.032,61.131, 176.101,61.39, 176.103,61.526c 0.251-0.037, 0.273-0.225, 0.273-0.42
	c 0.058,0-0.021-0.094-0.021-0.126C 176.449,60.946, 176.566,61.069, 176.566,60.939c 0.040,0, 0.042,0.040, 0.042,0.084
	c 0.13,0.025, 0.214-0.015, 0.294,0.013c 0.055,0.019, 0.027,0.305, 0.002,0.406c-0.032,0.128-0.276,0.13-0.276,0.189
	c-0.277,0.206, 0.326,0.314, 0.421,0.44c-0.057,0-0.273-0.028-0.273-0.041c-0.137,0-0.467,0.144-0.589,0.041
	c 0.17,0, 0.227-0.204, 0.253-0.398c-0.157-0.059-0.341,0.038-0.385,0.193C 175.982,62.123, 175.811,61.856, 175.725,62.029
	C 175.692,62.039, 175.389,62.18, 175.389,62.133c-0.341,0.048-0.252,0.338-0.252,0.65C 175.272,62.864, 175.548,63.096, 175.535,63.223
	C 175.842,63.277, 175.954,63.31, 176.229,63.349c 0.023,0.045, 0.114,0.087, 0.169,0.104c0,0.18, 0.164,0.148, 0.315,0.148
	c0-0.23, 0.268,0.192, 0.294,0.272c-0.037,0, 0.063,0.235, 0.084,0.315c-0.042-0.015-0.055,0-0.042,0.042
	c 0.133,0.049, 0.344,0.035, 0.379-0.105c-0.128,0-0.085-0.146-0.085-0.231c-0.131-0.088-0.111-0.256, 0.021-0.293
	c0,0.119, 0.433-0.074, 0.189-0.167c 0.060-0.134, 0.1-0.34, 0.003-0.456c-0.062-0.074-0.14,0-0.171-0.11
	c 0.165-0.041, 0.044-0.356, 0.042-0.503c 0.052-0.020, 0.189,0.033, 0.189,0c 0.162,0, 0.431,0.205, 0.526-0.043
	c 0.27,0.123, 0.055,0.241, 0.337,0.147c0,0.067, 0.318,0.377, 0.358,0.377c0,0.015-0.008,0.105, 0.062,0.105
	c0,0.067-0.042-0.038-0.042,0.083c 0.039,0.004, 0.253,0.043, 0.253-0.041c 0.136,0, 0.231-0.166, 0.231-0.293
	c 0.085-0.055, 0.234,0.461, 0.336,0.461c 0.075,0.117, 0.316,0.288, 0.316,0.398c 0.051,0.052, 0.104,0.038, 0.104,0.189
	c 0.064,0, 0.19-0.251, 0.19-0.021c 0.060,0, 0.233,0.128, 0.253,0.23c-0.151,0-0.008,0.147-0.086,0.147
	c0,0.145-0.325,0.030-0.398,0.021c-0.101,0.451-0.708,0.127-1.075,0.243c-0.193,0.061-0.567,0.487-0.587,0.7
	c 0.235,0.003, 0.338-0.203, 0.547-0.273c 0.171,0, 0.204-0.103, 0.358-0.146c0,0.043, 0.042,0.020, 0.042,0.063
	c-0.299,0-0.117,0.193-0.030,0.334c 0.054,0.088, 0.116,0.13, 0.185,0.157c-0.029,0.051-0.052,0.102-0.071,0.158
	c0,0.001-0.001,0-0.001,0.001c-0.057,0.019-0.168,0.060-0.19,0.105c-0.339,0.038-0.172,0.015-0.149-0.067
	c 0.012,0.029, 0.134,0.003, 0.129,0.004c-0.020-0.102-0.051-0.088-0.021-0.146c-0.184,0-0.273,0.084-0.421,0.084
	c-0.025,0.050-0.153,0.168-0.21,0.168c-0.043,0.13-0.14,0.365-0.253,0.44c0-0.034-0.299,0.188-0.273,0.188
	c-0.067,0.108-0.139,0.104-0.169,0.272c-0.020,0.011-0.105,0.291-0.105,0.335c-0.13,0.087-0.178,0.44-0.4,0.44
	c-0.136,0.27-0.379,0.234-0.379,0.587c 0.082,0.084, 0.114,0.456, 0.139,0.575c 0.032,0.148, 0.081,0.302-0.117,0.305
	c-0.014-0.022-0.152-0.231-0.127-0.231c0-0.087-0.106-0.364-0.168-0.451c-0.083-0.116-0.237,0.018-0.358-0.032
	c-0.052-0.103-0.401-0.126-0.525-0.126c 0.020,0.078, 0.077,0.102, 0.084,0.189c-0.103,0.042-0.163,0.089-0.27,0.074
	c-0.183-0.025-0.161-0.168-0.362-0.148c-0.322,0.032-0.547,0.299-0.547,0.619c-0.036,0-0.036,0.629,0,0.629
	c0,0.178, 0.147,0.306, 0.147,0.44c 0.143,0, 0.303,0.314, 0.442,0.314c 0.016,0.111-0.070,0.129, 0.168,0.127
	c0-0.012, 0.13-0.081, 0.147-0.168c-0.165-0.040-0.001-0.252, 0.105-0.293c0,0.15, 0.21-0.050, 0.21-0.063
	c 0.024-0.010, 0.232-0.084, 0.232-0.084c0-0.17, 0.158,0.017, 0.042,0.084c-0.114,0-0.105,0.189-0.168,0.189
	c-0.027,0.135-0.081,0.252-0.112,0.383c-0.040,0.162, 0.091,0.178, 0.049,0.33c 0.167,0.032, 0.336,0.001, 0.505,0
	c 0.001-0.030-0.005-0.059-0.021-0.084c 0.244,0, 0.021,0.461, 0.169,0.461c0,0.174, 0.084,0.31, 0.084,0.419
	c 0.114,0.075, 0.182,0.176, 0.147,0.314c 0.14,0.018, 0.441,0.054, 0.441-0.126c 0.213,0, 0.228,0.144, 0.212,0.293
	c 0.423,0, 0.158-0.419, 0.335-0.419c 0.017-0.069, 0.045-0.081, 0.087-0.036c 0.087,0.046, 0.152-0.087, 0.221-0.129
	c 0.022-0.015, 0.099-0.060, 0.113-0.060c 0.060,0.036, 0.065,0.025, 0.091,0.066c 0.116-0.001, 0.232-0.066, 0.331-0.134
	c 0.151,0.018, 0.102,0.344, 0.386,0.364c 0.114,0.008, 0.377,0.039, 0.475-0.028c 0.025-0.017, 0.115,0.057, 0.124,0.088
	c 0.095,0, 0.088,0.082, 0.128,0.081c 0.010,0.018, 0.024,0.025, 0.043,0.020c 0.012,0.036, 0.088,0.046, 0.127,0.146
	c0,0.091, 0.189,0.107, 0.189,0.167c 0.136,0.068-0.046,0.087, 0.162,0.15c 0.115,0.036, 0.221,0.094, 0.344,0.102
	c 0.039-0.15, 0.167,0.020, 0.232,0.020c 0.033,0.068, 0.051,0.017, 0.083,0.084c 0.195,0.163, 0.067,0.1, 0.147,0.273
	c 0.094,0.061, 0.123,0.275, 0.149,0.398c-0.075,0-0.022,0.288-0.022,0.315c-0.091,0, 0.233,0.172, 0.233-0.043
	c 0.133,0.022, 0.221,0.167, 0.315,0.167c-0.055,0.127, 0.147,0.222, 0.147,0.022c 0.2,0.020, 0.146,0.318, 0.127,0.419
	c 0.148,0, 0.191-0.082, 0.317-0.098C 182.55,73.563, 182.703,73.5, 182.875,73.5c 0.484,0, 0.875,0.391, 0.875,0.875c0,0.436-0.325,0.781-0.742,0.848
	c-0.056,0.064-0.107,0.119-0.11,0.119c0,0.042-0.010,0.46-0.022,0.46c0,0.084-0.064,0.545-0.126,0.545
	c0,0.237-0.155,0.28-0.21,0.503c-0.128,0.095-0.473,0.252-0.527,0.356c-0.099,0-0.172,0.084-0.273,0.084
	c-0.014,0.029-0.228,0.231-0.19,0.231c-0.016,0.149, 0.011,0.499-0.069,0.597c-0.054,0.065-0.132,0.058-0.098,0.159
	c-0.118,0, 0.007,0.084-0.179,0.084c-0.117,0-0.326,0.167-0.333,0.309c-0.008,0.173-0.054,0.298-0.203,0.404
	c0,0.060-0.273,0.077-0.273,0.231c 0.025,0,0,0.285,0,0.314c-0.081-0.003-0.281,0.079-0.315,0.146c-0.275,0-0.242,0.028-0.42,0.147
	c0,0.037-0.025,0.167-0.063,0.167c0,0.213-0.151,0.019-0.274,0.127c 0.048,0, 0.109,0.209, 0.084,0.209
	c0,0.185-0.115,0.2-0.231,0.336c-0.055,0.037-0.108,0.189-0.147,0.189c0,0.124-0.062,0.237-0.062,0.356
	c 0.026,0, 0.002,0.053, 0.020,0.103c 0.059-0.017, 0.060-0.083, 0.084-0.083c0-0.105, 0.167,0.062, 0.063,0.062
	c-0.087,0.131-0.18,0.134-0.232,0.315c-0.052,0-0.098,0.051-0.137,0.11C 179.797,82.085, 180.878,82.25, 182,82.25
	c 4.309,0, 8.090-2.229, 10.274-5.594c 0.013-0.31, 0.061-0.605, 0.095-0.708c 0.086,0.063, 0.15,0.181, 0.21,0
	c-0.151-0.030-0.115-0.082-0.063-0.209c 0.058,0.035, 0.174,0.078, 0.269,0.072c 0.029-0.054, 0.052-0.112, 0.081-0.166
	c-0.086-0.067, 0.032-0.239, 0.074-0.155c 0.022-0.042, 0.041-0.086, 0.061-0.128c-0.010-0.003-0.007,0.004-0.021-0.001
	c0-0.076, 0.014-0.067, 0.064-0.105c 0.001,0.008,0,0.008, 0.002,0.015C 193.809,73.672, 194.25,71.89, 194.25,70c0-0.062-0.009-0.122-0.010-0.184
	c-0.023,0.086-0.066,0.178-0.126,0.2c0,0.055-0.626,0.327-0.588,0.44c-0.11,0-0.497,0.11-0.568,0.251
	c-0.078,0-0.392,0.111-0.421,0.168C 192.147,70.876, 192.222,70.415, 192.034,70.415z M 193.813,65.625l-0.465,0
	c-0.004-0.004-0.007-0.005-0.011-0.011c-0.024,0-0.123-0.222-0.084-0.273c 0.038,0, 0.055,0.004, 0.075,0.005
	c-0.039-0.096-0.082-0.191-0.125-0.286c-0.095,0.065-0.178,0.147-0.308,0.155c0,0.036-0.186,0.398,0,0.398
	c0,0.007, 0.004,0.012, 0.005,0.018C 192.678,65.652, 192.5,65.834, 192.5,66.063c0,0.242, 0.196,0.438, 0.438,0.438l 0.172,0
	c 0.011,0.080, 0.053,0.149, 0.206,0.183c 0.048,0.202, 0.409,0.274, 0.463,0.062c-0.152,0-0.102-0.146-0.089-0.245L 193.813,66.5
	c 0.241,0, 0.438-0.196, 0.438-0.438C 194.25,65.821, 194.053,65.625, 193.813,65.625z M 192.538,71.314c 0.031,0.002, 0.233-0.004, 0.233-0.039
	c 0.183,0, 0.43-0.025, 0.61-0.085c0,0.271-0.228,0.423-0.19,0.692c-0.151,0-0.085,0.156-0.085,0.209
	c-0.098,0.060-0.113,0.171-0.231,0.231c0,0.122-0.273,0.323-0.354,0.427c-0.091,0.116-0.365,0.319-0.401,0.466
	c 0.010-0.035-0.5,0.531-0.382,0.531c0,0.106-0.144,0.943, 0.042,0.943c0,0.074, 0.158,0.776, 0.062,0.776
	c0,0.226-0.147,0.364-0.147,0.544c-0.072,0.049-0.174,0.076-0.21,0.148c-0.129,0-0.191,0.273-0.252,0.273
	c0,0.291-0.085,0.507-0.085,0.838c 0.024,0-0.168,0.472-0.168,0.502c-0.155,0.104-0.547,0.478-0.547,0.672c0,0-0.273,0.383-0.315,0.44
	c-0.082,0-0.716,0.119-0.716,0.168c-0.135,0-0.483,0.106-0.567-0.021c0-0.133-0.073-0.302-0.084-0.483
	c-0.065,0-0.075-0.272-0.147-0.272c0-0.058-0.402-0.86-0.337-0.86c0-0.083-0.072-0.356-0.084-0.356c0-0.289-0.211-0.529-0.211-0.796
	c-0.062,0-0.191-0.586-0.126-0.586c0-0.308, 0.108-0.509, 0.152-0.851c 0.050-0.375-0.024-0.604-0.089-0.869
	c-0.036,0-0.157-0.2-0.169-0.251c-0.169-0.112-0.231-0.334-0.231-0.544c 0.11-0.126, 0.154-0.599, 0.127-0.755
	c-0.213-0.101-0.298-0.063-0.527-0.063c-0.136-0.272-1.046-0.104-1.305-0.104c0,0.149-0.634-0.029-0.694-0.147
	c-0.155,0-0.462-0.329-0.462-0.482c-0.17-0.113-0.441-0.675-0.441-0.859c-0.147-0.074-0.102-0.357-0.022-0.357
	c 0.020-0.079-0.052-0.327-0.086-0.445c-0.025-0.088, 0.086-0.184, 0.086-0.289c0-0.292, 0.007-0.427, 0.171-0.739
	c 0.052-0.098, 0.117-0.19, 0.165-0.312c 0.088-0.22, 0.114-0.011, 0.232-0.206c 0.113-0.056, 0.178-0.243, 0.295-0.335
	c 0.051-0.067, 0.052-0.095,0-0.147c 0.023,0, 0.147-0.323, 0.147-0.397c 0.165-0.228, 0.048-0.124, 0.21-0.105
	c 0.060-0.065, 0.158-0.231, 0.252-0.231c 0.041-0.081, 0.144-0.126, 0.232-0.126c0,0.126, 0.343-0.041, 0.379-0.041
	c 0.059-0.118, 0.437-0.252, 0.526-0.252c0-0.144, 0.745,0.040, 0.863,0.021c0-0.021,0-0.042,0-0.063c 0.159,0.038, 0.45,0.676, 0.42,0.818
	c 0.123,0, 0.236-0.020, 0.316,0c0,0.136, 0.256,0.169, 0.372,0.175c 0.162,0.008, 0.637-0.017, 0.637-0.238c 0.125,0, 0.236,0.088, 0.212,0.23
	c 0.142,0.016, 0.984,0.032, 0.925,0.209c 0.123,0, 0.155,0.211, 0.273,0.211c-0.024,0.145, 0.147,0.524, 0.273,0.524
	c0,0.126, 0.079,0.358, 0.19,0.439c 0.060,0.18, 0.256,0.56, 0.441,0.671c-0.079,0.149, 0.12,0.271, 0.169,0.419
	c-0.011,0, 0.043,0.22, 0.104,0.252c0,0.149, 0.313,0.755, 0.485,0.755C 192.486,71.264, 192.314,71.298, 192.538,71.314z M 187.995,66.62
	c 0.032-0.125, 0.106-0.028, 0.174-0.005c 0.162,0.052, 0.106-0.003, 0.226-0.057C 188.395,66.899, 188.199,66.64, 187.995,66.62z
	 M 187.553,65.991c 0.086,0, 0.109,0.385-0.126,0.314c0-0.095-0.060-0.272, 0.064-0.272C 187.526,66.181, 187.553,66.121, 187.553,65.991z
	 M 187.449,65.74c 0.097,0.042, 0.14,0.028, 0.126-0.042c 0.128,0.042-0.017,0.133-0.042,0.231
	C 187.467,65.864, 187.487,65.841, 187.449,65.74z M 185.197,63.873c-0.206-0.053, 0.213-0.115, 0.231-0.167c-0.070,0-0.118-0.073-0.091-0.134
	c 0.032-0.073, 0.083,0.087, 0.155,0.051c 0.085-0.009, 0.252-0.136, 0.166,0.109c-0.088,0.248-0.167,0.43-0.482,0.435
	C 185.063,64.053, 185.172,63.994, 185.197,63.873z M 185.976,63.014c 0.17,0, 0.021,0.126-0.017,0.126c 0.029,0.011-0.005,0.113-0.005,0.146
	c 0.158-0.002, 0.16-0.098, 0.273-0.126c-0.024,0.141-0.181,0.168-0.027,0.289c 0.081,0.064, 0.165,0.139, 0.132,0.236
	c 0.2,0, 0.23,0.193, 0.189,0.419c 0.111,0, 0.106,0.005, 0.106-0.106c 0.108,0.030, 0.1,0.127,0,0.127
	c-0.1,0.197-0.361,0.188-0.547,0.188c-0.002-0.152-0.031-0.162-0.172-0.119c-0.193,0.059-0.042-0.153-0.038-0.258
	c 0.021,0, 0.437,0.019, 0.189-0.063c-0.013-0.226-0.064-0.293-0.273-0.293c0-0.154-0.054-0.143-0.080-0.311
	C 185.671,63.019, 185.902,63.286, 185.976,63.014z M 185.912,64.376c0,0.052-0.105,0.093-0.126,0.020c 0.020,0.007, 0.028,0, 0.020-0.020
	C 185.842,64.376, 185.878,64.376, 185.912,64.376z M 184.188,62.125l-0.875,0 C 183.071,62.125, 182.875,61.929, 182.875,61.688C 182.875,61.446, 183.071,61.25, 183.313,61.25l 0.875,0
	C 184.429,61.25, 184.625,61.446, 184.625,61.688C 184.625,61.929, 184.429,62.125, 184.188,62.125z M 179.090,69.869c 0.049,0, 0.106,0.019, 0.106,0.063
	C 179.132,69.932, 179.050,69.992, 179.090,69.869z M 178.292,69.912c-0.035,0.067-0.319,0.055-0.358-0.022c 0.105,0, 0.186,0.043, 0.294,0
	c0-0.058-0.048-0.104-0.084-0.167c 0.115,0, 0.243,0.088, 0.4,0.084c0-0.097-0.043,0.021,0-0.105c 0.066,0.017, 0.224,0.167, 0.231,0.23
	C 178.545,69.907, 178.534,69.912, 178.292,69.912z M 177.366,69.409c-0.108,0-0.315-0.094-0.379-0.189c 0.104,0.004, 0.207,0.047, 0.273-0.063
	c 0.267,0.027, 0.291,0.211, 0.505,0.211c 0.040,0.071, 0.27,0.234, 0.048,0.255C 177.646,69.638, 177.436,69.547, 177.366,69.409z
	 M 177.534,69.996c-0.078,0-0.206,0.034-0.147-0.127C 177.49,69.883, 177.539,69.926, 177.534,69.996z M 177.681,69.975
	c-0.042,0.007-0.084,0.014-0.126,0.021C 177.567,69.899, 177.659,69.79, 177.681,69.975z M 178.459,70.896
	c-0.017,0.059-0.014,0.062-0.083,0.062c 0.007-0.027, 0.013-0.054, 0.020-0.083C 178.418,70.882, 178.438,70.889, 178.459,70.896z
	 M 176.566,69.156c 0.020,0.007, 0.042,0.015, 0.063,0.021c 0.027,0.104, 0.084,0.052, 0.147,0.021C 176.776,69.32, 176.495,69.355, 176.566,69.156z"></path><path d="M 252,84L 231,70L 252,56 		zM 224,59.5L 231,59.5L 231,80.5L 224,80.5z"></path><path d="M 280,56L 301,70L 280,84 		zM 301,59.5L 308,59.5L 308,80.5L 301,80.5z"></path><path d="M 357.513,79.987L 361.526,84L 364,81.526L 359.987,77.513L 364,73.5L 353.5,73.5L 353.5,84 		zM 336,66.5L 346.5,66.5L 346.5,56L 342.487,60.013L 338.516,56.038L 336.041,58.512L 340.013,62.487 		zM 336,81.526L 338.474,84L 342.487,79.987L 346.5,84L 346.5,73.5L 336,73.5L 340.013,77.513 		zM 353.5,66.5L 364,66.5L 359.987,62.487L 363.966,58.512L 361.491,56.038L 357.513,60.013L 353.5,56 		z"></path><path d="M 415.987,77.513L 411.974,73.5L 409.5,75.974L 413.513,79.987L 409.5,84L 420,84L 420,73.5 		zM 402.5,56L 392,56L 392,66.5L 396.013,62.487L 399.988,66.459L 402.462,63.984L 398.487,60.013 		zM 402.5,75.974L 400.026,73.5L 396.013,77.513L 392,73.5L 392,84L 402.5,84L 398.487,79.987 		zM 420,56L 409.5,56L 413.513,60.013L 409.538,63.984L 412.012,66.459L 415.987,62.487L 420,66.5 		z"></path></svg>